<?xml version="1.0" encoding="UTF-8"?>
<!DOCTYPE svg PUBLIC "-//W3C//DTD SVG 1.1//EN" "http://www.w3.org/Graphics/SVG/1.1/DTD/svg11.dtd">
<!-- Creator: CorelDRAW 2017 -->
<svg xmlns="http://www.w3.org/2000/svg" xml:space="preserve" width="451.555mm" height="451.555mm" version="1.1" style="shape-rendering:geometricPrecision; text-rendering:geometricPrecision; image-rendering:optimizeQuality; fill-rule:evenodd; clip-rule:evenodd"
viewBox="0 0 45156 45156"
 xmlns:xlink="http://www.w3.org/1999/xlink">
 <defs>
  <style type="text/css">
   <![CDATA[
    .fil3 {fill:#D24C4C}
    .fil1 {fill:#D54D4D}
    .fil5 {fill:#D64A49}
    .fil4 {fill:#D64C4A}
    .fil2 {fill:#D74B4C}
    .fil0 {fill:#D94A49}
    .fil7 {fill:#DB4949}
    .fil6 {fill:#FAFAFA}
   ]]>
  </style>
 </defs>
 <g id="Layer_x0020_1">
  <metadata id="CorelCorpID_0Corel-Layer"/>
  <path class="fil0" d="M36242 24351c-62,-1709 -106,-1641 399,-1702 529,-64 1244,-267 1629,103 553,532 335,1728 -2028,1599zm2237 1676c86,10 17,-147 81,131 151,659 -196,861 321,1885l2138 -17c-92,-292 -315,-313 -418,-895 -99,-561 139,-1548 -570,-2061 -346,-250 -501,-196 -860,-359 479,-402 1120,-574 1264,-1390 231,-1316 -713,-1634 -797,-1796 -1170,-298 -1167,-358 -2564,-127 -784,130 -1670,327 -2447,416l-2 6228 1611 4 19 -2324c29,-124 15,-81 59,-148 244,-74 956,-103 1255,-99 498,6 796,136 910,553z"/>
  <path class="fil0" d="M32830 20107l3131 -598 -9 -1165 -2858 609 6 -1393c224,-168 2067,-643 2230,-616l6 -1167c-436,-20 -1602,549 -2247,617l21 -1218 2237 -778c319,-105 634,-111 636,-414 -2,-170 2,-334 5,-504 4,-253 64,-383 -141,-465 -190,189 -1815,686 -2242,837 -395,140 -2006,656 -2226,821l-6 5673 1456 -242z"/>
  <path class="fil1" d="M8237 26592c-228,-1267 1492,-1001 2174,-1001 952,0 2387,-259 2524,689 179,1237 -1377,979 -2210,978 -962,-1 -2322,255 -2488,-666zm3894 1619c89,350 10,412 -86,705 -377,181 -363,227 -942,224 -1422,-8 -3065,288 -2943,-778 91,-795 1169,-600 1938,-600 644,0 1834,-213 2033,450zm-6126 854c-194,-154 -599,-148 -1269,-749 -1291,-1159 -1617,-2759 -1356,-4604 471,-3332 3593,-4996 4643,-7600 98,-243 148,-558 459,-601 299,-42 482,153 619,352 949,1378 -1030,3390 -1118,4475 -24,300 128,680 58,881 -57,165 -591,717 -151,1501 221,393 108,330 -9,800 -170,164 -199,545 -831,1029 -540,413 -837,304 -1409,541 -45,580 420,465 1042,224 384,-149 724,-405 966,-609 12,10 29,11 34,32l514 665c-577,616 -680,1300 -58,2007 -97,227 -767,730 -370,1570 95,201 64,119 94,141 -623,74 -1254,3 -1861,-52zm2511 -8268c-271,-1109 1724,-2814 1288,-4582 -190,-773 -603,-931 -849,-1183l-49 14c-1352,-159 -964,477 -1932,1963 -1443,2215 -4046,3842 -4172,7511 -43,1247 208,2283 717,3129 1433,2384 3456,1985 5826,1979 934,-2 3119,272 3180,-712 154,-172 169,-392 142,-628 -32,-281 -124,-333 -194,-581 439,-130 773,-441 903,-842 239,-740 -101,-919 -255,-1393 431,-183 785,-593 790,-1202 6,-713 -346,-907 -789,-1254 100,-252 543,-744 208,-1473 -480,-1043 -1647,-775 -2982,-775 -292,0 -1731,55 -1833,28zm4861 3725c-269,805 -1656,572 -2903,572 -411,0 -1330,47 -1683,-25 -391,-80 -774,-534 -595,-1074 264,-796 1699,-564 2905,-564 410,0 1336,-46 1688,26 426,87 749,582 588,1066zm-455 -2195c-277,881 -1686,602 -2573,602 -615,0 -2444,260 -2093,-1075 225,-856 1775,-594 2595,-594 398,0 1254,-56 1571,60 370,136 641,559 500,1006z"/>
  <path class="fil2" d="M33073 22020c-131,63 -3614,593 -3758,558l-9 5480 4400 4 20 -1117 -3040 96 7 -1407 2537 -161 9 -1070 -2537 219 -14 -1197c374,-63 2855,-396 3039,-346l11 -1114 -666 55z"/>
  <path class="fil3" d="M10019 19662c-242,230 -1129,245 -791,644 184,217 395,68 833,-80 274,-93 544,-178 808,-267l4824 -1573c2137,-692 4368,-1433 6467,-2114 2142,-696 4397,-1410 6473,-2118 1097,-374 2150,-708 3221,-1052 637,-204 2892,-982 3317,-1051 339,-291 1140,-78 926,-733 -436,-105 -5744,1748 -6571,2021l-16260 5317c-502,167 -2895,1008 -3244,1007z"/>
  <path class="fil3" d="M40640 29627c886,-2 624,-367 534,-433 -186,-135 -7652,-60 -8060,-60l-19128 0c-239,1 -666,-87 -791,127 -200,342 236,368 474,369 8954,48 18003,-28 26972,-4z"/>
  <path class="fil4" d="M22047 25235c-50,184 48,150 -310,126l-12 -1690 -945 109 -7 4286 937 22 19 -1768 457 -33 983 1781 1313 6c-59,-319 -1202,-1881 -1438,-2330 -152,-289 255,-745 556,-1206 197,-303 623,-905 749,-1221l-1318 156c-190,335 -783,1646 -982,1762z"/>
  <path class="fil5" d="M21593 18501c787,-241 779,715 778,1381 -1,662 -98,1379 -761,1541 -887,217 -835,-755 -836,-1417 -2,-817 125,-1293 819,-1505zm545 3577c343,-360 158,58 905,-851l115 -114c129,-638 259,-288 258,-1545 0,-556 27,-1082 -282,-1494 -601,-801 -1852,-445 -2505,174 -698,660 -885,1657 -736,2810 64,499 305,868 696,1072 555,290 1062,68 1550,-51z"/>
  <polygon class="fil2" points="24541,23243 24529,24087 25855,23999 25867,28053 27142,28077 27160,23840 28723,23659 28715,22673 "/>
  <path class="fil2" d="M18056 26341c0,-583 -36,-1314 419,-1535 722,-350 909,402 910,970 1,572 63,1422 -476,1602 -681,227 -853,-471 -853,-1037zm-675 -1191c-517,3604 1687,3210 2336,2599 562,-529 597,-1352 534,-2351 -58,-925 -602,-1447 -1624,-1386 -333,93 -560,185 -789,412 -282,280 -273,434 -457,726z"/>
  <path class="fil3" d="M30653 20169c-275,-492 -1449,-1650 -1866,-2232 59,-257 762,-1245 939,-1513 168,-255 896,-1292 952,-1556 -378,110 -845,272 -1249,392 -872,258 -705,509 -1488,1902 -259,460 -236,768 -829,827l-12 -1964 -1278 381 -5 4950 971 -136c355,-87 162,8 291,-147l24 -1991 640 -115 339 537c98,67 126,119 213,237 12,17 96,140 102,150 70,135 37,36 54,158 239,122 413,471 584,695 200,23 1606,-156 1833,-361l-217 -213z"/>
  <path class="fil2" d="M15720 20732c164,185 306,847 314,1078l-556 117 242 -1195zm-321 -1015l-835 3683c871,74 556,-270 789,-760l868 -200 139 648 687 -82c-5,-255 -806,-3195 -930,-3483l-719 194z"/>
  <path class="fil1" d="M17074 20096c8,7 19,6 70,81l500 1006c206,423 116,1089 127,1628 276,41 540,-39 782,-98 3,-389 -50,-1210 55,-1538 60,-190 356,-955 467,-1059l673 -1755c-999,157 -942,361 -1057,708 -131,395 -324,1036 -502,1383 -266,-155 -473,-1092 -690,-1371l-742 210c84,335 251,481 319,806z"/>
  <path class="fil6" d="M36242 24351c2363,129 2581,-1067 2028,-1599 -385,-370 -1099,-167 -1629,-103 -505,61 -461,-7 -399,1702z"/>
  <path class="fil7" d="M15868 25192l193 145c112,406 176,989 92,1482 -91,534 -364,647 -917,599l13 -2261c304,-20 316,-62 619,34zm1062 1477c37,-533 108,-1343 -191,-1583 -376,-865 -1236,-610 -2172,-484l-14 3481c1346,86 2049,30 2363,-1174l14 -240z"/>
 </g>
</svg>
